<svg xmlns="http://www.w3.org/2000/svg" width="430" height="430" fill="none" viewBox="0 0 430 430"><path fill="#f9c9c0" d="M344.35 142.219 287.781 85.65l35.356-35.355 56.568 56.568z"/><path fill="#ebe6ef" d="M71.779 351.976c-1.3 3.91 2.42 7.626 6.329 6.321l75.324-25.16-56.569-56.569z"/><path fill="#ffc738" d="m153.431 333.138-56.569-56.569L287.781 85.65l56.569 56.569z"/><path stroke="#3a3347" stroke-linecap="round" stroke-linejoin="round" stroke-miterlimit="14" stroke-width="7" d="m220.606 209.394 67.175-67.175"/><path fill="#3a3347" d="m97.365 351.865-28.742 9.6 9.57-28.772z"/><path fill="#ebe6ef" d="M96.863 276.568 114.295 294 68.62 361.46s18.823-56.572 28.243-84.892" opacity=".5" style="mix-blend-mode:multiply"/><path fill="#ffc738" d="M305.135 103.003 287.782 85.65 96.863 276.57l17.431 17.432 2.569-2.726z" opacity=".5" style="mix-blend-mode:multiply"/><path fill="#f9c9c0" d="m323.137 50.295 17.352 17.353-35.355 35.355-17.353-17.353z" opacity=".5" style="mix-blend-mode:multiply"/><path stroke="#121331" stroke-linecap="round" stroke-linejoin="round" stroke-miterlimit="14" stroke-width="7" d="M344.35 142.219 287.781 85.65l35.356-35.355 56.568 56.568zM68.623 361.465l84.809-28.328-56.569-56.569z"/><path stroke="#121331" stroke-linecap="round" stroke-linejoin="round" stroke-miterlimit="14" stroke-width="7" d="m153.431 333.138-56.569-56.569L287.781 85.65l56.569 56.569zm67.175-123.744 67.175-67.175"/></svg>